<?xml version="1.0" encoding="UTF-8"?>
<svg version="1.1" xmlns="http://www.w3.org/2000/svg" width="192" height="192">
<path d="M0 0 C5.43232071 4.09222835 10.41870393 8.58995159 13.359375 14.77734375 C0.74390748 15.46874796 -8.76829501 15.81123466 -19.640625 8.77734375 C-27.67387925 6.09959233 -36.45120048 7.32305536 -44.140625 10.51953125 C-54.13439652 15.54764754 -60.43096247 23.17841269 -63.94921875 33.77734375 C-65.84238653 41.99176665 -65.64740561 50.29801994 -61.640625 57.77734375 C-58.42265138 61.28546253 -55.1590306 63.51784588 -50.328125 64.015625 C-36.85742916 64.3876355 -26.56596218 58.39492985 -16.640625 49.77734375 C-12.71405022 45.80416274 -9.47402159 42.1339521 -7.59765625 36.828125 C-7.3239492 33.55760162 -7.3239492 33.55760162 -9.984375 30.9609375 C-11.02014568 30.02715447 -12.07308817 29.11213789 -13.140625 28.21484375 C-15.19532214 26.47303215 -16.84958026 24.82808997 -18.640625 22.77734375 C-18.310625 21.12734375 -17.980625 19.47734375 -17.640625 17.77734375 C-6.750625 17.77734375 4.139375 17.77734375 15.359375 17.77734375 C20.98618182 30.43765909 23.00470382 44.81171221 18.734375 58.40234375 C12.63773514 73.5058662 2.35860104 84.33195747 -12.640625 90.77734375 C-26.01434964 95.33420664 -39.76730658 94.55114916 -52.640625 88.77734375 C-66.28251919 81.48598651 -75.36775364 71.23374365 -79.9453125 56.30859375 C-82.79654855 41.82815898 -80.97286064 27.60913408 -73.328125 14.90234375 C-65.68519376 3.75303602 -55.44702349 -3.94943621 -42.29296875 -7.5625 C-27.3746199 -10.25897161 -12.90756233 -8.28867973 0 0 Z M6.359375 42.77734375 C5.35472279 44.04928875 4.38205388 45.34650047 3.421875 46.65234375 C-8.64048466 62.27690738 -23.65298081 72.75086527 -43.4375 75.515625 C-44.16453125 75.60199219 -44.8915625 75.68835938 -45.640625 75.77734375 C-38.82188292 80.32317181 -29.57041549 79.58702474 -21.640625 78.77734375 C-11.61563647 76.36141183 -3.49880851 70.38007556 2.234375 61.83984375 C5.6384165 55.84449038 7.89538391 49.74545964 7.359375 42.77734375 C7.029375 42.77734375 6.699375 42.77734375 6.359375 42.77734375 Z " fill="#F94539" transform="translate(125.640625,52.22265625)"/>
<path d="M0 0 C0.66 0.33 1.32 0.66 2 1 C-2.95 5.95 -7.9 10.9 -13 16 C-13 11.93645091 -11.47015238 10.94829419 -8.75 8 C-7.96109375 7.13375 -7.1721875 6.2675 -6.359375 5.375 C-4.3351828 3.33740256 -2.34982916 1.63841299 0 0 Z " fill="#EC483C" transform="translate(67,52)"/>
</svg>
